<svg width="16" height="16" viewBox="0 0 16 16" fill="none" xmlns="http://www.w3.org/2000/svg">
<rect x="0.5" y="0.5" width="15" height="15" rx="7.5" fill="#DA2B4B"/>
<path d="M11.2047 11.2047C11.3766 11.0329 11.3766 10.7542 11.2047 10.5823L8.62278 8.00032L11.2047 5.41836C11.3766 5.24647 11.3766 4.96779 11.2047 4.79591C11.0329 4.62402 10.7542 4.62402 10.5823 4.79591L8.00032 7.37787L5.41836 4.79591C5.24647 4.62402 4.96779 4.62402 4.79591 4.79591C4.62402 4.96779 4.62402 5.24647 4.79591 5.41836L7.37787 8.00032L4.79591 10.5823C4.62402 10.7542 4.62402 11.0329 4.79591 11.2047C4.96779 11.3766 5.24647 11.3766 5.41836 11.2047L8.00032 8.62278L10.5823 11.2047C10.7542 11.3766 11.0329 11.3766 11.2047 11.2047Z" fill="white"/>
<rect x="0.5" y="0.5" width="15" height="15" rx="7.5" stroke="white"/>
</svg>
