<svg width="12" height="12" viewBox="0 0 12 12" fill="none" xmlns="http://www.w3.org/2000/svg">
<path d="M11.768 11.768C12.0773 11.4586 12.0773 10.9569 11.768 10.6475L7.12042 6L11.768 1.35246C12.0773 1.04307 12.0773 0.54144 11.768 0.232046C11.4586 -0.0773487 10.9569 -0.077348 10.6475 0.232046L6 4.87958L1.35246 0.232046C1.04307 -0.0773485 0.54144 -0.0773487 0.232046 0.232046C-0.0773489 0.54144 -0.0773482 1.04307 0.232046 1.35246L4.87958 6L0.232046 10.6475C-0.0773485 10.9569 -0.0773487 11.4586 0.232046 11.768C0.54144 12.0773 1.04307 12.0773 1.35246 11.768L6 7.12041L10.6475 11.768C10.9569 12.0773 11.4586 12.0773 11.768 11.768Z" fill="#222222"/>
</svg>
